<svg width="101" height="100" viewBox="0 0 101 100" fill="none" xmlns="http://www.w3.org/2000/svg">
<path d="M28.7009 21.3708C34.4482 21.3708 39.1052 16.7136 39.1052 10.9666C39.1052 5.21952 34.4484 0.5625 28.7009 0.5625C22.9539 0.5625 18.2969 5.21952 18.2969 10.9666C18.2969 16.7136 22.9537 21.3708 28.7009 21.3708Z" fill="white"/>
<path d="M41.1655 73.3505C39.4324 73.1001 37.8608 72.2045 36.7507 70.8079C35.43 69.1463 34.9475 67.0077 35.4262 64.9404L35.4886 64.6711C33.5027 64.9253 31.5762 64.4666 29.9779 63.4634C28.0901 62.279 26.7768 60.4306 26.2795 58.2581C25.7822 56.086 26.1608 53.8502 27.3452 51.9626L42.7037 27.4847C41.1609 25.2746 38.7716 24.125 36.3125 24.125H21.0887C18.0047 24.125 15.3064 25.9356 13.9866 28.6093L1.04478 54.8271C-0.241807 57.4342 0.828294 60.5907 3.43513 61.8775C6.04257 63.1645 9.1989 62.0938 10.4857 59.4873L14.7221 50.9048L16.0885 68.8992V94.1711C16.0885 97.0785 18.4454 99.4352 21.3528 99.4352C24.2602 99.4352 26.6171 97.0785 26.6171 94.1711V70.3437H30.7852V94.1711C30.7852 97.0785 33.142 99.4352 36.0494 99.4352C38.6264 99.4352 40.7692 97.583 41.2235 95.1377C41.1866 94.8202 41.1657 94.4982 41.1657 94.1711V73.3505H41.1655Z" fill="white"/>
<path d="M65.664 79.4373C64.3579 79.1222 63.1872 78.3817 62.3298 77.3024C61.3016 76.0089 60.8489 74.3875 61.0476 72.7709C61.0303 72.7709 61.0126 72.7711 60.9954 72.7711C60.2944 72.7711 59.6023 72.6671 58.9375 72.4688V94.1753C58.9375 97.0827 61.2944 99.4394 64.202 99.4394C65.0691 99.4394 65.8865 99.2283 66.6079 98.8568C66.0086 97.8044 65.6642 96.5889 65.6642 95.2938V79.4373H65.664Z" fill="white"/>
<path d="M54.8851 61.7024L67.8396 41.056C68.5301 39.9559 69.4921 39.0827 70.6094 38.498C68.7745 36.5273 67.6488 33.8876 67.6488 30.989C67.6488 30.1007 67.7574 29.2375 67.9565 28.4094L67.3109 27.3807C66.3505 25.8504 64.7323 24.9846 63.0536 24.9185C62.5379 24.8478 51.1402 24.8524 50.6616 24.9187C48.9833 24.9846 47.3647 25.8504 46.4045 27.3807L29.9543 53.5985C28.409 56.0614 29.1527 59.3103 31.6153 60.8556C34.0788 62.4013 37.3273 61.6562 38.8722 59.1944L40.5304 56.5519L38.4267 65.6351C38.1624 66.7761 38.4333 67.9755 39.162 68.8924C39.8909 69.8094 40.9983 70.3437 42.1698 70.3437H44.2454V94.1712C44.2454 97.0785 46.6023 99.4352 49.5099 99.4352C52.4173 99.4352 54.774 97.0785 54.774 94.1712V70.3435H55.6085C53.53 68.0052 53.1402 64.4832 54.8851 61.7024Z" fill="white"/>
<path d="M99.8681 63.3446L86.9123 42.698C86.1561 41.4931 84.8817 40.811 83.5598 40.7592C83.3603 40.7317 81.0974 40.7188 78.8002 40.7188C76.4153 40.7188 73.9938 40.7327 73.8014 40.7594C72.4794 40.8112 71.2046 41.4933 70.4485 42.6984L57.4938 63.345C56.2771 65.2843 56.8628 67.8431 58.8021 69.0598C60.7425 70.2775 63.301 69.6898 64.5169 67.7515L65.8226 65.6707L64.1659 72.8236C63.958 73.7222 64.1713 74.6666 64.7453 75.3888C65.3191 76.111 66.1914 76.5318 67.114 76.5318H68.7485V95.2959C68.7485 97.5855 70.6045 99.4415 72.8941 99.4415C75.1834 99.4415 77.0392 97.5855 77.0392 95.2959V76.5318H80.3218V95.2959C80.3218 97.5855 82.1782 99.4415 84.4674 99.4415C86.757 99.4415 88.6126 97.5855 88.6126 95.2959V76.5318H90.2469C91.1692 76.5318 92.0414 76.111 92.6152 75.3888C93.1891 74.6666 93.4024 73.7224 93.1943 72.8236L91.5381 65.6695L92.8448 67.7519C94.0621 69.6921 96.6217 70.2765 98.5594 69.0598C100.499 67.8427 101.085 65.2839 99.8681 63.3446Z" fill="white"/>
<path d="M56.856 22.6186C62.4212 22.6186 66.9541 18.1075 66.9541 12.5202C66.9541 6.94227 62.4343 2.42188 56.856 2.42188C51.2776 2.42188 46.7578 6.94207 46.7578 12.5202C46.7578 18.1085 51.2919 22.6186 56.856 22.6186Z" fill="white"/>
<path d="M74.3467 37.6594C75.5933 38.4708 77.0805 38.944 78.6791 38.944C80.2782 38.944 81.7654 38.4706 83.0119 37.6588C85.19 36.2404 86.6313 33.7853 86.6313 30.9914C86.6313 26.5987 83.0717 23.0391 78.6791 23.0391C74.2862 23.0391 70.7266 26.5989 70.7266 30.9914C70.7266 33.7857 72.1679 36.2412 74.3467 37.6594Z" fill="white"/>
</svg>
