<svg width="101" height="110" viewBox="0 0 101 110" fill="none" xmlns="http://www.w3.org/2000/svg">
<path d="M59.4613 14.8112C64.6925 15.9625 69.5788 18.0231 73.9512 20.8188L81.335 13.435L77.585 9.685L70.2012 17.0688C66.89 14.9519 63.2863 13.2625 59.4613 12.0644V14.8112ZM40.0438 14.8112V4.375H55.7113V0.625H36.2938V11.0612C31.0625 12.2125 26.1763 14.2731 21.8038 17.0688L25.5538 20.8188C29.9281 18.0231 34.8144 15.9625 40.0438 14.8112ZM93.6913 49.0413H100.378V45.2913H92.6881C93.0725 46.5194 93.4119 47.77 93.6913 49.0413ZM5.81375 68.4588H3.06688C4.265 72.2838 5.95438 75.8894 8.07125 79.1987L0.6875 86.5825L4.4375 90.3325L11.8213 82.9487C9.02563 78.5744 6.965 73.6881 5.81375 68.4588ZM40.0438 102.689C38.7725 102.409 37.5219 102.07 36.2938 101.686V109.375H40.0438V102.689Z" fill="#027FBF"/>
</svg>
