<svg width="100" height="85" viewBox="0 0 100 85" fill="none" xmlns="http://www.w3.org/2000/svg">
<path d="M98.7912 30.1082C97.3474 29.3339 95.4865 30.4355 94.8896 31.2457C94.8342 31.316 94.7553 31.3918 94.6592 31.491C93.9607 32.2097 92.506 33.7058 90.5373 37.8582C88.1873 42.8113 85.5404 47.9714 81.3342 51.8605C80.233 52.8959 78.925 53.6864 77.4963 54.1799C76.0676 54.6734 74.5506 54.8588 73.0451 54.7238C72.8545 54.6414 72.6752 54.5351 72.5115 54.4074C72.8334 53.7808 74.5935 52.3339 78.392 50.6605C84.8857 47.9191 85.642 43.0925 85.7224 42.2949C85.9185 41.0621 86.3818 37.9589 84.2576 37.0996C82.5818 36.4238 80.7842 37.898 79.6592 39.5043C78.6271 40.7506 77.2723 41.6892 75.7428 42.2175C74.1623 42.8871 72.5365 43.405 70.8154 43.9527C68.3306 44.6656 65.9149 45.6004 63.5974 46.7457C59.5548 48.9534 56.4687 52.575 54.9303 56.9167C53.4431 60.6772 52.8669 64.7363 53.249 68.7621C54.0943 76.9558 56.9584 81.4605 59.2131 83.7964C59.4326 84.0274 59.6968 84.2115 59.9895 84.3375C60.2822 84.4634 60.5975 84.5287 60.9162 84.5293C61.2666 84.5282 61.6127 84.4509 61.9303 84.3027C62.3901 84.0898 62.7724 83.7392 63.0241 83.2994C63.2758 82.8595 63.3844 82.3523 63.3349 81.848C63.3111 81.2324 63.1476 80.6302 62.8568 80.0871C62.8092 79.991 62.7521 79.8761 62.6849 79.73C61.9266 78.1255 61.8264 76.2879 62.406 74.6105L62.4514 74.5058C63.306 72.4652 65.2271 71.9324 69.8787 70.8214C71.8928 70.3402 74.3998 69.741 77.3318 68.8058C90.5123 64.1378 94.3177 54.1785 96.0318 47.0933C97.4232 41.348 99.3881 35.1668 99.3865 35.1668C99.7459 34.1863 100.837 31.2035 98.7912 30.1082ZM36.4037 46.7457C34.0862 45.6004 31.6705 44.6656 29.1857 43.9527C27.4646 43.4058 25.8396 42.8871 24.2584 42.2175C22.7292 41.689 21.3746 40.7504 20.3428 39.5043C19.2178 37.898 17.4209 36.4285 15.7443 37.0996C13.6193 37.9589 14.0826 41.0621 14.2787 42.2949C14.3599 43.0918 15.1146 47.9183 21.5873 50.6503C25.406 52.3324 27.1678 53.7808 27.4896 54.4074C27.5388 54.5058 26.8709 54.7324 26.7763 54.7417C26.5696 54.7604 26.3621 54.7701 26.1545 54.7707C25.4941 54.7777 24.8345 54.7233 24.1842 54.6082C22.17 54.25 20.297 53.3332 18.7787 51.9621L18.6678 51.8605C14.4615 47.9714 11.8146 42.8113 9.46463 37.8589C7.49588 33.7058 6.04119 32.2089 5.34197 31.491C5.24588 31.3918 5.16775 31.316 5.1115 31.2457C4.51463 30.4347 2.65447 29.3339 1.20994 30.1082C-0.835372 31.2035 0.256816 34.1863 0.593534 35.1035C0.612284 35.166 2.57791 41.348 3.96853 47.0933C5.68416 54.1793 9.48885 64.1378 22.7178 68.8222C25.6013 69.741 28.1084 70.3402 30.1232 70.8222C34.774 71.9324 36.6951 72.4652 37.5451 74.4933L37.6084 74.6402C38.1764 76.3099 38.0719 78.1353 37.317 79.7292C37.249 79.8761 37.192 79.991 37.1451 80.0871C36.8542 80.6297 36.6905 81.2313 36.6662 81.8464C36.6164 82.3512 36.725 82.859 36.9768 83.2992C37.2287 83.7395 37.6113 84.0905 38.0717 84.3035C38.3893 84.4514 38.7353 84.5285 39.0857 84.5293C39.4044 84.5287 39.7197 84.4634 40.0124 84.3375C40.3052 84.2115 40.5693 84.0274 40.7888 83.7964C43.0435 81.4605 45.9076 76.9558 46.7529 68.7621C47.1347 64.7362 46.5583 60.6772 45.0709 56.9167C43.5325 52.5748 40.4465 48.9537 36.4037 46.7457ZM73.7756 0.779254C70.71 -2.42183 57.6768 14.4451 53.249 14.2473C48.8212 14.0494 52.2183 12.1618 48.8795 15.0767C45.5406 12.162 46.6149 20.3645 42.1873 20.5624C37.7597 20.7603 43.0779 17.3615 40.0124 20.5624C36.7261 24.0011 40.0124 16.8648 40.0124 21.6213C40.0124 26.3779 36.7261 19.7623 40.0124 23.2011L48.8795 49.6777C49.0251 49.8277 49.1994 49.947 49.392 50.0284C49.5845 50.1099 49.7915 50.1518 50.0006 50.1518C50.2097 50.1518 41.0178 26.8596 41.2104 26.7782C41.403 26.6967 50.976 49.8277 51.1217 49.6777L73.7763 26.3183C77.0627 22.8796 36.9768 29.9108 36.9768 25.1542C36.9768 20.3976 50.9424 19.2179 47.656 15.7792L73.7756 0.779254Z" fill="white"/>
</svg>
