<svg width="99" height="74" viewBox="0 0 99 74" fill="none" xmlns="http://www.w3.org/2000/svg">
<path d="M18.5141 10.6699C18.5141 5.00117 23.0493 0.429688 28.7543 0.429688C34.4231 0.429688 38.9946 5.00117 38.9946 10.6699C38.9578 16.3754 34.3864 20.9102 28.7543 20.9102C23.0856 20.9102 18.5141 16.3387 18.5141 10.6699ZM74.9989 54.5902H56.4184V37.9863C56.4184 29.8973 49.3496 23.359 41.3957 23.359H16.4899C7.75784 23.359 0.277376 30.9254 0.281282 38.3816V68.8223C0.271126 72.1957 2.65355 73.9574 5.02503 73.9617C7.40238 73.966 9.76917 72.2043 9.76917 68.8223V39.1723H12.9317V73.9566H43.7676V39.1723H46.9301L46.9621 59.0852C46.941 62.5359 49.0739 64.0055 51.2785 64.0785H74.9985C81.4676 64.0781 81.4676 54.5902 74.9989 54.5902ZM98.7188 29.4367C98.7188 33.3969 97.5871 36.0027 95.9586 39.1918C93.0614 44.0605 91.1926 46.941 90.3352 47.7809L90.1293 48.0039C88.7235 49.341 87.1633 50.0441 85.466 50.0441C83.1344 50.0441 81.2828 49.0496 79.9457 47.3355H79.877C78.5227 49.05 76.7055 50.0441 74.3739 50.0441C72.6766 50.0441 71.1336 49.3242 69.7106 47.9867L69.5047 47.7809C68.6645 46.9406 66.7789 44.0777 63.8813 39.1918C62.2528 36.0031 61.1211 33.3973 61.1211 29.4367C61.1211 26.4023 62.2012 23.7965 64.3442 21.6363C66.5043 19.4762 69.1102 18.4133 72.1446 18.4133C75.1961 18.4133 77.7336 19.3906 79.8594 21.6191H79.9282C82.0539 19.3902 84.6258 18.4133 87.6774 18.4133C90.7289 18.4133 93.3176 19.4762 95.4778 21.6363C97.6379 23.7965 98.7188 26.3848 98.7188 29.4367ZM96.0785 30.2254C96.1813 28.048 95.3926 25.9395 93.8496 24.3105C92.2039 22.5789 89.8895 21.5848 87.4891 21.5848C86.9063 21.5848 86.4434 22.0477 86.4434 22.6305C86.4434 23.2133 86.9063 23.6762 87.4891 23.6762C89.3063 23.6762 91.0723 24.4305 92.3239 25.7508C93.4895 26.968 94.0727 28.5109 93.9867 30.1227C93.918 31.5457 93.4211 33.2258 92.4953 35.0945C92.2383 35.609 92.461 36.2262 92.9754 36.4832C93.1297 36.5519 93.284 36.5859 93.4383 36.5859C93.8325 36.5859 94.1926 36.3801 94.3813 36.0031C95.427 33.8769 95.993 31.9227 96.0785 30.2254ZM86.2551 16.1844C84.9692 17.093 79.9118 20.2648 79.9118 20.2648L77.2199 9.37851L79.4657 7.78398L80.9399 14.2473C81.2828 10.4754 83.6145 8.6582 89.2375 6.75547C89.9067 11.4867 89.3239 13.9383 86.2551 16.1844Z" fill="white"/>
</svg>
