<svg width="75" height="100" viewBox="0 0 75 100" fill="none" xmlns="http://www.w3.org/2000/svg">
<path fill-rule="evenodd" clip-rule="evenodd" d="M3.40016 87.5163H71.1573V90.153C71.1573 90.1774 71.1573 90.1937 71.1573 90.2181C71.2794 92.6921 70.8806 94.6126 69.7576 95.7601C68.6427 96.8913 66.7058 97.3877 63.7273 97.0622C63.6459 97.0459 63.5727 97.0459 63.4913 97.0459H9.51995V97.054H9.47926C7.29827 97.1273 5.80088 96.6634 4.86501 95.752C3.94541 94.8568 3.48968 93.457 3.4083 91.6504C3.4083 91.6341 3.4083 91.6178 3.4083 91.5934V87.5163H3.40016ZM71.1573 44.1243H3.40016V40.9505C3.40016 40.918 3.40016 40.8936 3.40016 40.861C2.80609 31.7383 6.99717 26.123 11.8881 19.5557C12.7752 18.3675 13.6866 17.1387 14.6306 15.8122H59.8292C60.6593 16.9678 61.5626 18.1641 62.4496 19.3522C66.9744 25.3743 71.2631 31.0872 71.1573 39.0381C71.1492 39.0869 71.1492 39.1276 71.1492 39.1764V44.1243H71.1573ZM68.0079 2.70996V12.8988C68.3416 12.7441 68.6427 12.5326 68.9031 12.2721C69.4646 11.7106 69.8064 10.9456 69.8064 10.0993V5.50944C69.8064 4.66309 69.4565 3.89811 68.9031 3.33659C68.6508 3.07617 68.3497 2.86458 68.0079 2.70996ZM66.1117 13.1755V2.43327H61.4568V13.1755H66.1117ZM9.0154 2.43327V13.1755H13.1739C13.3204 13.0859 13.4913 13.0208 13.6703 12.9964V2.43327H9.0154ZM7.11924 12.8988V2.70996C6.78558 2.86458 6.47633 3.07617 6.22406 3.33659C5.66253 3.89811 5.32073 4.66309 5.32073 5.50944V10.1074C5.32073 10.9538 5.67067 11.7188 6.22406 12.2803C6.47633 12.5326 6.78558 12.7441 7.11924 12.8988ZM15.5746 2.43327V12.9801H20.2296V2.43327H15.5746ZM22.1257 2.43327V12.9801H26.7807V2.43327H22.1257ZM28.685 2.43327V12.9801H33.3399V2.43327H28.685ZM35.2361 2.43327V12.9801H39.891V2.43327H35.2361ZM41.7953 2.43327V12.9801H46.4503V2.43327H41.7953ZM48.3465 2.43327V12.9801H53.0014V2.43327H48.3465ZM54.8976 2.43327V12.9801H59.5525V2.43327H54.8976ZM8.38877 0H66.7384C68.252 0 69.6274 0.61849 70.6283 1.61947C71.6293 2.62044 72.2478 3.99577 72.2478 5.50944V10.1074C72.2478 11.6211 71.6293 12.9964 70.6283 13.9974C69.6274 14.9984 68.252 15.6169 66.7384 15.6169H63.1821C63.6948 16.3167 64.2075 16.9922 64.712 17.6676C69.5297 24.0804 74.1033 30.1758 73.9894 39.0788C73.9894 39.1113 73.9975 39.152 73.9975 39.1846V90.1611C74.1521 93.3838 73.5092 95.9961 71.7839 97.7539C70.0587 99.5117 67.365 100.309 63.4425 99.8942H9.51995V99.8861C6.54144 99.9756 4.36859 99.235 2.88747 97.7865C1.41449 96.3542 0.690201 94.3115 0.576269 91.7725C0.568131 91.7155 0.568131 91.6585 0.568131 91.5934V40.9505C-0.0666346 30.8431 4.40114 24.8535 9.60947 17.863C10.1629 17.1224 10.7244 16.3737 11.2778 15.6169H8.38877C6.8751 15.6169 5.49977 14.9984 4.49879 13.9974C3.49782 12.9964 2.87933 11.6211 2.87933 10.1074V5.50944C2.87933 3.99577 3.49782 2.62044 4.49879 1.61947C5.49977 0.61849 6.8751 0 8.38877 0ZM34.5932 51.6357H39.9073C40.9002 51.6357 41.714 52.4495 41.714 53.4424V61.3607H49.6323C50.6251 61.3607 51.4389 62.1745 51.4389 63.1673V68.4814C51.4389 69.4743 50.6251 70.2881 49.6323 70.2881H41.714V78.2064C41.714 79.1992 40.9002 80.013 39.9073 80.013H34.5932C33.6004 80.013 32.7866 79.1992 32.7866 78.2064V70.2881H24.8683C23.8754 70.2881 23.0616 69.4743 23.0616 68.4814V63.1673C23.0616 62.1745 23.8754 61.3607 24.8683 61.3607H32.7866V53.4424C32.7866 52.4495 33.6004 51.6357 34.5932 51.6357Z" fill="white"/>
</svg>
