<svg width="200" height="200" viewBox="0 0 200 200" fill="none" xmlns="http://www.w3.org/2000/svg">
<g clip-path="url(#clip0_5_103459)">
<path d="M199.132 97.6656C197.325 95.5762 154.268 46.4297 99.9998 46.4297C45.7318 46.4297 2.6748 95.5762 0.867773 97.6691C-0.289258 99.0086 -0.289258 100.998 0.867773 102.337C2.6748 104.426 45.7318 153.573 99.9998 153.573C154.268 153.573 197.325 104.426 199.132 102.333C200.289 100.994 200.289 99.0047 199.132 97.6656ZM8.42481 100.001C14.9248 93.1727 35.5643 73.0406 62.6678 61.6582C52.6678 71.3937 46.4283 84.9762 46.4283 100.001C46.4283 115.026 52.6678 128.608 62.6678 138.344C35.5643 126.962 14.9248 106.83 8.42481 100.001ZM99.9998 146.43C74.3998 146.43 53.5713 125.601 53.5713 100.001C53.5713 74.4012 74.3998 53.5727 99.9998 53.5727C125.6 53.5727 146.428 74.4012 146.428 100.001C146.428 125.601 125.6 146.43 99.9998 146.43ZM137.335 138.344C147.332 128.609 153.571 115.026 153.571 100.001C153.571 84.9762 147.331 71.3941 137.331 61.6582C164.435 73.0402 185.074 93.1727 191.574 100.001C185.075 106.83 164.439 126.962 137.335 138.344Z" stroke="#1693D3" stroke-width="4"/>
<path d="M71.4297 100.001H78.5727C78.5727 88.1832 88.1832 78.5727 100.001 78.5727V71.4297C84.2477 71.4297 71.4297 84.2477 71.4297 100.001Z" stroke="#1693D3" stroke-width="4"/>
<path d="M121.429 100C121.429 111.818 111.818 121.429 100 121.429V128.571C115.754 128.571 128.571 115.754 128.571 100H121.429Z" stroke="#1693D3" stroke-width="4"/>
<path d="M40.9871 33C39.0906 34.675 37.2516 36.4395 35.5156 38.2535L40.6727 43.193C42.2691 41.525 43.9656 39.8965 45.7121 38.3574L40.9871 33Z" stroke="#1693D3" stroke-width="4"/>
<path d="M22.0121 56.5156C20.7871 58.7156 19.6371 60.9977 18.6016 63.2941L25.1086 66.2336C26.0656 64.1191 27.1191 62.023 28.248 59.998L22.0121 56.5156Z" stroke="#1693D3" stroke-width="4"/>
<path d="M159.072 33.0547L154.344 38.4082C156.087 39.9477 157.779 41.5727 159.376 43.2477L164.54 38.3121C162.804 36.4941 160.962 34.7262 159.072 33.0547Z" stroke="#1693D3" stroke-width="4"/>
<path d="M96.2559 10.7969C93.7309 10.9004 91.1879 11.1148 88.6953 11.4289L89.5953 18.5184C91.8883 18.2254 94.2273 18.0289 96.5523 17.9328L96.2559 10.7969Z" stroke="#1693D3" stroke-width="4"/>
<path d="M133.382 17.1719L130.711 23.7934C132.861 24.6613 134.996 25.6328 137.064 26.6789L140.289 20.3074C138.047 19.1719 135.722 18.1145 133.382 17.1719Z" stroke="#1693D3" stroke-width="4"/>
<path d="M81.218 12.6953C78.7609 13.2203 76.293 13.8633 73.875 14.5988L75.957 21.4309C78.182 20.7523 80.457 20.1629 82.7176 19.6773L81.218 12.6953Z" stroke="#1693D3" stroke-width="4"/>
<path d="M30.5027 43.9531C28.9098 45.9246 27.3922 47.9781 25.9922 50.0566L31.9137 54.0531C33.2031 52.1461 34.5992 50.2566 36.0637 48.4387L30.5027 43.9531Z" stroke="#1693D3" stroke-width="4"/>
<path d="M118.879 12.7188L117.375 19.7008C119.639 20.1863 121.914 20.7793 124.129 21.4613L126.225 14.6328C123.818 13.8938 121.346 13.2473 118.879 12.7188Z" stroke="#1693D3" stroke-width="4"/>
<path d="M103.843 10.7969L103.539 17.9324C105.871 18.0289 108.214 18.2289 110.5 18.5219L111.403 11.4363C108.918 11.1219 106.375 10.9039 103.843 10.7969Z" stroke="#1693D3" stroke-width="4"/>
<path d="M178.029 56.5938L171.789 60.0687C172.921 62.1043 173.979 64.2043 174.925 66.3082L181.439 63.3727C180.407 61.0828 179.264 58.8043 178.029 56.5938Z" stroke="#1693D3" stroke-width="4"/>
<path d="M53.1648 23.9688C51.0148 25.2973 48.9004 26.7293 46.8828 28.2258L51.1398 33.9652C52.9969 32.5867 54.9363 31.2687 56.9184 30.0473L53.1648 23.9688Z" stroke="#1693D3" stroke-width="4"/>
<path d="M169.545 44.0156L163.984 48.4977C165.441 50.3047 166.834 52.1941 168.131 54.1156L174.056 50.1191C172.645 48.0297 171.13 45.9762 169.545 44.0156Z" stroke="#1693D3" stroke-width="4"/>
<path d="M146.901 24.0156L143.141 30.0871C145.116 31.3121 147.059 32.6301 148.919 34.0086L153.176 28.2766C151.158 26.7762 149.044 25.3406 146.901 24.0156Z" stroke="#1693D3" stroke-width="4"/>
<path d="M66.7035 17.1328C64.382 18.0684 62.0535 19.1223 59.7891 20.2613L63.007 26.6398C65.0891 25.5898 67.232 24.6219 69.3715 23.7578L66.7035 17.1328Z" stroke="#1693D3" stroke-width="4"/>
<path d="M110.402 181.484C108.109 181.777 105.77 181.974 103.445 182.07L103.742 189.205C106.267 189.102 108.81 188.888 111.302 188.573L110.402 181.484Z" stroke="#1693D3" stroke-width="4"/>
<path d="M89.5051 181.477L88.6016 188.562C91.0871 188.877 93.6301 189.094 96.1621 189.202L96.4656 182.066C94.1336 181.97 91.791 181.77 89.5051 181.477Z" stroke="#1693D3" stroke-width="4"/>
<path d="M75.8699 178.539L73.7734 185.368C76.1805 186.107 78.652 186.753 81.1199 187.282L82.6234 180.3C80.3555 179.81 78.084 179.218 75.8699 178.539Z" stroke="#1693D3" stroke-width="4"/>
<path d="M124.05 178.57C121.825 179.249 119.55 179.838 117.289 180.324L118.789 187.306C121.246 186.781 123.714 186.138 126.132 185.402L124.05 178.57Z" stroke="#1693D3" stroke-width="4"/>
<path d="M40.6176 156.75L35.4531 161.686C37.1887 163.504 39.0316 165.271 40.9211 166.943L45.6496 161.589C43.9066 160.05 42.2141 158.425 40.6176 156.75Z" stroke="#1693D3" stroke-width="4"/>
<path d="M25.077 133.695L18.5625 136.631C19.5945 138.92 20.7375 141.199 21.973 143.409L28.2125 139.934C27.0805 137.899 26.0234 135.799 25.077 133.695Z" stroke="#1693D3" stroke-width="4"/>
<path d="M31.8668 145.883L25.9453 149.879C27.3559 151.969 28.8703 154.022 30.4559 155.983L36.0129 151.501C34.5559 149.694 33.1633 147.804 31.8668 145.883Z" stroke="#1693D3" stroke-width="4"/>
<path d="M51.0852 165.992L46.8281 171.724C48.8426 173.224 50.9566 174.66 53.0996 175.985L56.8602 169.913C54.8852 168.692 52.9426 167.374 51.0852 165.992Z" stroke="#1693D3" stroke-width="4"/>
<path d="M62.9359 173.328L59.7109 179.7C61.9574 180.835 64.2824 181.893 66.618 182.835L69.2895 176.214C67.1398 175.346 65.0039 174.375 62.9359 173.328Z" stroke="#1693D3" stroke-width="4"/>
<path d="M148.857 166.031C147 167.41 145.06 168.728 143.078 169.949L146.832 176.028C148.982 174.699 151.096 173.267 153.114 171.771L148.857 166.031Z" stroke="#1693D3" stroke-width="4"/>
<path d="M136.997 173.359C134.915 174.409 132.772 175.377 130.633 176.241L133.297 182.866C135.619 181.931 137.947 180.877 140.212 179.738L136.997 173.359Z" stroke="#1693D3" stroke-width="4"/>
<path d="M159.329 156.805C157.732 158.473 156.036 160.101 154.289 161.64L159.014 166.997C160.911 165.322 162.75 163.558 164.486 161.744L159.329 156.805Z" stroke="#1693D3" stroke-width="4"/>
<path d="M174.889 133.766C173.932 135.88 172.879 137.976 171.75 140.001L177.986 143.483C179.211 141.283 180.361 139.001 181.396 136.705L174.889 133.766Z" stroke="#1693D3" stroke-width="4"/>
<path d="M168.087 145.945C166.798 147.852 165.402 149.742 163.938 151.56L169.498 156.045C171.091 154.074 172.609 152.02 174.009 149.942L168.087 145.945Z" stroke="#1693D3" stroke-width="4"/>
<path d="M3.57148 0C1.6 0 0 1.6 0 3.57148V21.4285H7.14297V7.14297H21.4285V0H3.57148Z" stroke="#1693D3" stroke-width="4"/>
<path d="M196.427 0H178.57V7.14297H192.856V21.4285H199.999V3.57148C199.999 1.6 198.399 0 196.427 0Z" stroke="#1693D3" stroke-width="4"/>
<path d="M7.14297 192.856V178.57H0V196.427C0 198.399 1.6 199.999 3.57148 199.999H21.4285V192.856H7.14297Z" stroke="#1693D3" stroke-width="4"/>
<path d="M192.856 178.57V192.856H178.57V199.999H196.427C198.399 199.999 199.999 198.399 199.999 196.427V178.57H192.856Z" stroke="#1693D3" stroke-width="4"/>
</g>
<defs>
<clipPath id="clip0_5_103459">
<rect width="200" height="200" fill="white"/>
</clipPath>
</defs>
</svg>
