<svg width="200" height="200" viewBox="0 0 200 200" fill="none" xmlns="http://www.w3.org/2000/svg">
<path d="M102.426 87.6172H100.589H61.734L30.7344 130.25L101.846 200.001L104.776 197.127L172.952 130.25L141.959 87.6172H102.426ZM135.086 95.9973L129.361 121.43L109.104 95.9973H135.086ZM101.559 98.4203L123.599 126.075H79.9898L101.559 98.4203ZM94.0461 95.9973L74.2949 121.327V121.333L68.6062 95.9977H94.0461V95.9973ZM62.1859 101.234L67.7707 126.075H44.1195L62.1859 101.234ZM70.0227 133.497L89.5785 176.24L45.9992 133.497H70.0227ZM101.846 185.225L78.177 133.497H125.51L101.846 185.225ZM114.108 176.24L133.664 133.497H157.681L114.108 176.24ZM135.916 126.075L141.507 101.234L159.568 126.075H135.916Z" stroke="#1693D3" stroke-width="4"/>
<path d="M195.786 71.0539C185.666 71.0539 182.169 68.5148 180.198 66.5496C178.238 64.5781 175.693 61.0809 175.693 50.9613C175.693 50.5769 175.657 49.4844 174.448 49.4844C173.246 49.4844 173.203 50.5769 173.203 50.9613C173.203 61.0809 170.657 64.5781 168.692 66.5496C166.721 68.5148 163.217 71.0539 153.11 71.0539C152.719 71.0539 151.633 71.0965 151.633 72.3051C151.633 73.5074 152.719 73.5504 153.11 73.5504C163.217 73.5504 166.721 76.0957 168.692 78.0609C170.657 80.0262 173.203 83.5297 173.203 93.6492C173.203 94.0398 173.245 95.1203 174.448 95.1203C175.657 95.1203 175.693 94.0398 175.693 93.6492C175.693 83.5297 178.239 80.0262 180.198 78.0609C182.169 76.0895 185.666 73.5504 195.786 73.5504C196.177 73.5504 197.263 73.5137 197.263 72.2992C197.263 71.1027 196.177 71.0539 195.786 71.0539Z" stroke="#1693D3" stroke-width="4"/>
<path d="M45.2687 33.0687C59.1785 33.0687 63.9883 36.5723 66.6922 39.2699C69.3961 41.9738 72.8871 46.7895 72.8871 60.6992C72.8871 61.2301 72.9605 62.7195 74.6082 62.7195C76.2684 62.7195 76.3172 61.2301 76.3172 60.6992C76.3172 46.7895 79.8145 41.9734 82.5184 39.2699C85.216 36.566 90.0258 33.0687 103.942 33.0687C104.473 33.0687 105.968 33.0199 105.968 31.3598C105.968 29.7117 104.473 29.6387 103.942 29.6387C90.0258 29.6387 85.216 26.1473 82.5184 23.4496C79.8145 20.7395 76.3172 15.9363 76.3172 2.02617C76.3172 1.49531 76.2684 0 74.6082 0C72.9602 0 72.8871 1.49531 72.8871 2.02656C72.8871 15.9363 69.3957 20.7398 66.6922 23.45C63.9883 26.1477 59.1789 29.6391 45.2687 29.6391C44.7379 29.6391 43.2422 29.7062 43.2422 31.3602C43.2422 33.0078 44.7375 33.0687 45.2687 33.0687Z" stroke="#1693D3" stroke-width="4"/>
<path d="M44.7082 76.5621C44.7082 75.4574 43.707 75.4144 43.3531 75.4144C34.0453 75.4144 30.8227 73.077 29.016 71.2703C27.2094 69.4574 24.8656 66.241 24.8656 56.9332C24.8656 56.5793 24.8289 55.5781 23.718 55.5781C22.6191 55.5781 22.5703 56.5793 22.5703 56.9332C22.5703 66.241 20.2328 69.4578 18.4262 71.2703C16.6133 73.077 13.3906 75.4144 4.08906 75.4144C3.7293 75.4148 2.73438 75.4574 2.73438 76.5621C2.73438 77.6668 3.7293 77.7098 4.08945 77.7098C13.3914 77.7098 16.6141 80.0535 18.4266 81.8602C20.2332 83.6668 22.5707 86.8895 22.5707 96.2035C22.5707 96.5574 22.6195 97.5523 23.7184 97.5523C24.8293 97.5523 24.866 96.5574 24.866 96.2035C24.866 86.8895 27.2098 83.6668 29.0164 81.8602C30.823 80.0473 34.0457 77.7098 43.3535 77.7098C43.7074 77.7098 44.7082 77.673 44.7082 76.5621Z" stroke="#1693D3" stroke-width="4"/>
</svg>
